<svg width="21" height="21" viewBox="0 0 21 21" fill="none" xmlns="http://www.w3.org/2000/svg">
<path d="M10.5 13.7812C11.9497 13.7812 13.125 12.606 13.125 11.1562C13.125 9.7065 11.9497 8.53125 10.5 8.53125C9.05025 8.53125 7.875 9.7065 7.875 11.1562C7.875 12.606 9.05025 13.7812 10.5 13.7812Z" fill="#3ED7EE"/>
<path d="M18.7031 5.90625H15.2988C15.1758 5.90625 15.0232 5.82668 14.9043 5.70117L13.7854 3.9457C13.3301 3.28125 13.125 3.28125 12.3867 3.28125H8.61328C7.875 3.28125 7.62891 3.28125 7.21588 3.94611L6.09574 5.70117C6.00469 5.80043 5.87672 5.90625 5.74219 5.90625V5.25C5.74219 5.16298 5.70762 5.07952 5.64608 5.01798C5.58455 4.95645 5.50109 4.92188 5.41406 4.92188H3.77344C3.68641 4.92188 3.60295 4.95645 3.54142 5.01798C3.47988 5.07952 3.44531 5.16298 3.44531 5.25V5.90625H2.29688C2.0358 5.90625 1.78542 6.00996 1.60082 6.19457C1.41621 6.37917 1.3125 6.62955 1.3125 6.89062V16.7344C1.3125 16.9954 1.41621 17.2458 1.60082 17.4304C1.78542 17.615 2.0358 17.7188 2.29688 17.7188H18.7031C18.9642 17.7188 19.2146 17.615 19.3992 17.4304C19.5838 17.2458 19.6875 16.9954 19.6875 16.7344V6.89062C19.6875 6.62955 19.5838 6.37917 19.3992 6.19457C19.2146 6.00996 18.9642 5.90625 18.7031 5.90625ZM10.685 15.0896C9.89135 15.1269 9.105 14.9232 8.42926 14.5054C7.75352 14.0875 7.22001 13.4749 6.89882 12.7483C6.57763 12.0216 6.4838 11.2147 6.62964 10.4337C6.77549 9.65267 7.1542 8.93406 7.716 8.37225C8.27781 7.81045 8.99642 7.43174 9.77743 7.28589C10.5584 7.14005 11.3653 7.23388 12.092 7.55507C12.8187 7.87626 13.4312 8.40977 13.8491 9.08551C14.267 9.76125 14.4707 10.5476 14.4334 11.3412C14.3864 12.3202 13.9764 13.2466 13.2833 13.9396C12.5903 14.6326 11.664 15.0426 10.685 15.0896Z" fill="#3ED7EE"/>
</svg>
