<svg width="20" height="20" viewBox="0 0 20 20" fill="none" xmlns="http://www.w3.org/2000/svg">
<path d="M10 0C4.486 0 0 4.486 0 10C0 15.514 4.486 20 10 20C15.514 20 20 15.514 20 10C20 4.486 15.514 0 10 0ZM10 18C5.589 18 2 14.411 2 10C2 5.589 5.589 2 10 2C14.411 2 18 5.589 18 10C18 14.411 14.411 18 10 18Z" fill="#1B1A57"/>
<path d="M12.8289 12.828C12.4634 13.1923 12.0317 13.4836 11.5569 13.686C10.7022 14.0468 9.74871 14.0995 8.85946 13.835C7.97021 13.5705 7.20049 13.0053 6.68193 12.236L5.02393 13.355C5.45636 13.9931 6.00652 14.543 6.64493 14.975C7.29458 15.4143 8.02451 15.7212 8.79292 15.878C9.58972 16.0405 10.4111 16.0405 11.2079 15.878C11.9763 15.721 12.7062 15.4141 13.3559 14.975C13.6689 14.763 13.9679 14.517 14.2419 14.244C14.5139 13.973 14.7619 13.673 14.9759 13.355L13.3179 12.236C13.1742 12.4485 13.0105 12.6467 12.8289 12.828Z" fill="#1B1A57"/>
<path d="M13.493 9.98601C14.3176 9.98601 14.986 9.31757 14.986 8.49301C14.986 7.66845 14.3176 7.00001 13.493 7.00001C12.6684 7.00001 12 7.66845 12 8.49301C12 9.31757 12.6684 9.98601 13.493 9.98601Z" fill="#1B1A57"/>
<path d="M6.5 10C7.32843 10 8 9.32843 8 8.50001C8 7.67158 7.32843 7.00001 6.5 7.00001C5.67157 7.00001 5 7.67158 5 8.50001C5 9.32843 5.67157 10 6.5 10Z" fill="#1B1A57"/>
</svg>
