<svg width="110" height="110" viewBox="0 0 110 110" fill="none" xmlns="http://www.w3.org/2000/svg">
<path d="M52.674 58.7463C53.6217 66.4694 57.365 72.6764 63.0983 77.7746C63.3479 77.9925 63.588 78.22 63.8186 78.4316C63.5595 79.0854 63.0352 78.8643 62.6371 78.8643C52.7393 78.8791 42.8415 78.8791 32.9437 78.8643C32.1698 78.8643 31.4022 79.0349 31.4085 77.7461C31.4464 67.117 31.4306 56.4878 31.4306 45.4227C32.9595 47.0905 34.0872 48.5815 35.4582 49.8734C39.8806 54.0619 45.1338 56.5068 51.123 57.4196C51.9696 57.5586 52.5414 57.6597 52.674 58.7463Z" fill="#3ED7EE"/>
<path d="M58.0317 51.1116C58.503 47.767 59.7326 44.5743 61.6265 41.7775C65.3193 36.3382 70.3703 32.8951 76.8492 31.5685C78.1348 31.3031 78.5392 31.5495 78.3054 32.9646C76.7607 42.2261 68.276 50.5588 58.992 51.8886C58.2371 52.0024 57.9022 51.9423 58.0317 51.1116Z" fill="#3ED7EE"/>
<path d="M54.9992 0C45.2361 0.00224761 35.6494 2.60258 27.2235 7.53405C18.7975 12.4655 11.8358 19.5504 7.05307 28.0615C2.27032 36.5725 -0.161149 46.2029 0.00828704 55.9641C0.177723 65.7254 2.94196 75.2656 8.0172 83.6056L1.2193 108.973L26.6798 102.151C33.9467 106.515 42.1239 109.14 50.5731 109.822C59.0223 110.504 67.5147 109.223 75.3874 106.081C83.26 102.939 90.2999 98.0198 95.9573 91.7076C101.615 85.3955 105.737 77.8611 108.001 69.6929C110.266 61.5247 110.611 52.9437 109.012 44.6197C107.412 36.2958 103.91 28.4543 98.7785 21.7073C93.6474 14.9604 87.0262 9.49062 79.432 5.72511C71.8377 1.9596 63.4758 0.000239207 54.9992 0ZM58.0064 58.9769C59.4406 68.1814 67.5083 76.4763 76.7386 78.163C78.5834 78.501 78.7318 78.381 78.7318 76.451C78.7318 70.5915 78.7318 62.4515 78.7318 56.592L83.8239 52.5393C83.8239 60.3193 83.8239 74.2146 83.8618 81.9946C83.8618 83.4508 83.5207 83.8898 82.0013 83.8898C63.9451 83.8372 45.889 83.8372 27.8328 83.8898C26.3861 83.8898 26.0607 83.4224 26.0639 82.0609C26.1018 64.0056 26.1018 45.9492 26.0639 27.8917C26.0639 26.8209 26.1049 26.0944 27.5391 26.1007C33.9705 26.1354 52.3426 26.1481 58.774 26.1575L55.3972 31.0725C50.9116 31.0473 37.6854 31.1325 33.1966 31.0725C31.6835 31.0504 31.4813 31.5179 31.7056 32.8857C33.2314 42.1344 41.8677 50.6946 51.1232 52.075C52.0709 52.2171 52.4468 51.9708 52.6269 50.9221C54.8223 38.126 63.1554 29.4205 75.8099 26.6345C78.0748 26.1354 80.3871 26.1765 82.6899 26.107C83.7323 26.0754 83.884 26.5745 83.8934 27.4305C84.0103 36.4045 80.9178 44.0297 74.2715 50.1134C70.1313 53.9774 64.8878 56.4522 59.2731 57.1922C58.1423 57.3469 57.8359 57.8144 58.0064 58.9769Z" fill="#3ED7EE"/>
</svg>
